# xmcd
#
# Track frame offsets:
#	150
#	13757
#	28060
#	39515
#	65427
#	82085
#	97212
#	108572
#	121292
#	133230
#	155287
#	171717
#	188310
#	205322
#
# Disc length: 2880 seconds
#
# Revision: 4
# Processed by: cddbd v1.4PL0 Copyright (c) Steve Scherf et al.
# Submitted via: audiograbber 1.81.03
#
DISCID=c70b3e0e
DTITLE=Kent DuChaine - Lookin Back
DYEAR=1993
DGENRE=Blues
TTITLE0=Can't be Satisfied
TTITLE1=Little Red Rooster
TTITLE2=Preachin' Blues
TTITLE3=St. James Infirmary
TTITLE4=Travelin Riverside
TTITLE5=Trouble In Mind
TTITLE6=Bukka's Boogie
TTITLE7=Crossroads
TTITLE8=Boogieman
TTITLE9=Come Into My Kitchen
TTITLE10=Aberdeen Missippi Blues
TTITLE11=Walkin Blues
TTITLE12=Sweet Home Chicago
TTITLE13=Shake Your Moneymaker
EXTD=
EXTT0=
EXTT1=
EXTT2=
EXTT3=
EXTT4=
EXTT5=
EXTT6=
EXTT7=
EXTT8=
EXTT9=
EXTT10=
EXTT11=
EXTT12=
EXTT13=
PLAYORDER=
